<svg width="224" height="157" viewBox="0 0 224 157" fill="none" xmlns="http://www.w3.org/2000/svg">
<path d="M221.087 122.283C221.087 131.349 217.703 137.838 211.892 142.577C206.006 147.377 197.535 150.456 187.279 152.39C169.849 155.677 147.828 155.569 125.852 155.461C121.936 155.442 118.021 155.422 114.134 155.422C110.268 155.422 106.351 155.441 102.41 155.46C80.1616 155.569 57.1928 155.68 38.8259 152.388C28.0229 150.451 19.0039 147.365 12.7116 142.548C6.49829 137.792 2.88075 131.308 2.88075 122.283C2.88075 118.711 2.74739 114.814 2.60506 110.655C2.36023 103.501 2.08887 95.572 2.4242 87.1913C2.95035 74.0416 4.97869 60.1697 10.9203 47.517C16.8463 34.8977 26.6929 23.4292 42.9805 15.0938C59.2986 6.74264 82.1555 1.5 114.134 1.5C146.107 1.5 168.683 6.92699 184.587 15.4972C200.459 24.0499 209.773 35.7781 215.173 48.5779C220.589 61.4144 222.088 75.3817 222.214 88.4007C222.277 94.9055 221.998 101.15 221.7 106.885C221.658 107.694 221.616 108.494 221.574 109.284C221.32 114.07 221.087 118.478 221.087 122.283Z" fill="white" stroke="#A52727" stroke-width="3"/>
</svg>
