<svg width="315" height="139" viewBox="0 0 315 139" fill="none" xmlns="http://www.w3.org/2000/svg">
<path d="M311.602 108.263C311.602 115.916 307.082 121.621 298.679 125.925C290.228 130.254 278.101 133.011 263.549 134.734C238.862 137.658 207.687 137.561 176.721 137.465C171.206 137.448 165.698 137.431 160.235 137.431C154.801 137.431 149.289 137.448 143.741 137.465C112.389 137.561 79.8842 137.661 53.8812 134.733C38.5686 133.009 25.6717 130.249 16.6427 125.908C7.63624 121.578 2.80666 115.86 2.80666 108.263C2.80666 105.148 2.61845 101.675 2.41901 97.9953C2.34589 96.646 2.27126 95.2689 2.20384 93.8713C1.95084 88.6269 1.79361 83.0169 2.16179 77.2371C2.89749 65.6881 5.72748 53.5222 14.0405 42.4029C30.6722 20.1566 69.7381 1.5 160.235 1.5C250.736 1.5 288.234 20.8163 303.355 43.3286C310.921 54.5933 313.015 66.834 313.191 78.2758C313.279 84.0004 312.888 89.5016 312.469 94.5763C312.41 95.2895 312.35 95.9957 312.291 96.6938C311.934 100.928 311.602 104.864 311.602 108.263Z" fill="white" stroke="#A52727" stroke-width="3"/>
</svg>
