<svg width="172" height="160" viewBox="0 0 172 160" fill="none" xmlns="http://www.w3.org/2000/svg">
<path d="M168.91 124.619C168.91 134.005 166.262 140.67 161.835 145.469C157.378 150.301 150.974 153.398 143.189 155.349C129.909 158.678 113.123 158.569 96.27 158.46C93.2633 158.44 90.2544 158.421 87.2629 158.421C84.2887 158.421 81.2782 158.44 78.2533 158.46C61.1904 158.569 43.673 158.681 29.6716 155.345C21.4613 153.389 14.6399 150.281 9.87673 145.435C5.15353 140.629 2.3189 133.975 2.3189 124.619C2.3189 121.018 2.21789 117.042 2.10984 112.789C1.62951 93.8803 1.01002 69.4935 8.50596 48.2749C13.0716 35.3511 20.6288 23.6991 33.0318 15.2616C45.4435 6.81815 62.8457 1.5 87.2629 1.5C111.672 1.5 128.854 7.00358 140.949 15.6671C153.038 24.3264 160.193 36.249 164.356 49.3657C168.525 62.5023 169.678 76.791 169.775 90.086C169.823 96.7281 169.608 103.102 169.38 108.948C169.348 109.774 169.315 110.59 169.283 111.395C169.089 116.273 168.91 120.753 168.91 124.619Z" fill="white" stroke="#A52727" stroke-width="3"/>
</svg>
