<svg width="78" height="25" viewBox="0 0 78 25" fill="none" xmlns="http://www.w3.org/2000/svg">
<path d="M39.3765 0C37.3959 0 35.4598 0.733111 33.813 2.10663C32.1663 3.48015 30.8828 5.43238 30.1248 7.71646C29.3669 10.0005 29.1686 12.5139 29.555 14.9386C29.9414 17.3634 30.8951 19.5907 32.2956 21.3388C33.696 23.087 35.4803 24.2775 37.4229 24.7598C39.3654 25.2421 41.3788 24.9946 43.2086 24.0485C45.0384 23.1024 46.6024 21.5002 47.7027 19.4446C48.803 17.389 49.3904 14.9723 49.3904 12.5C49.3874 9.18593 48.3314 6.00867 46.4541 3.66527C44.5767 1.32187 42.0314 0.00371733 39.3765 0ZM39.3765 21.4286C37.9618 21.4286 36.5789 20.9049 35.4026 19.9238C34.2263 18.9427 33.3095 17.5483 32.7682 15.9168C32.2268 14.2853 32.0851 12.4901 32.3611 10.7581C32.6371 9.02615 33.3184 7.43523 34.3187 6.18655C35.319 4.93786 36.5935 4.0875 37.981 3.74299C39.3685 3.39848 40.8067 3.57529 42.1137 4.25107C43.4207 4.92686 44.5378 6.07125 45.3238 7.53955C46.1097 9.00785 46.5292 10.7341 46.5292 12.5C46.5271 14.8672 45.7729 17.1367 44.4319 18.8105C43.091 20.4844 41.2729 21.4259 39.3765 21.4286ZM10.7654 0C8.7848 0 6.84872 0.733111 5.20194 2.10663C3.55516 3.48015 2.27166 5.43238 1.51373 7.71646C0.755804 10.0005 0.557495 12.5139 0.943883 14.9386C1.33027 17.3634 2.284 19.5907 3.68447 21.3388C5.08494 23.087 6.86924 24.2775 8.81175 24.7598C10.7542 25.2421 12.7677 24.9946 14.5975 24.0485C16.4273 23.1024 17.9913 21.5002 19.0916 19.4446C20.1919 17.389 20.7792 14.9723 20.7792 12.5C20.7763 9.18593 19.7203 6.00867 17.843 3.66527C15.9656 1.32187 13.4203 0.00371733 10.7654 0ZM10.7654 21.4286C9.35067 21.4286 7.96776 20.9049 6.79149 19.9238C5.61522 18.9427 4.69843 17.5483 4.15705 15.9168C3.61568 14.2853 3.47403 12.4901 3.75002 10.7581C4.02601 9.02615 4.70725 7.43523 5.70758 6.18655C6.70791 4.93786 7.98242 4.0875 9.36992 3.74299C10.7574 3.39848 12.1956 3.57529 13.5026 4.25107C14.8096 4.92686 15.9267 6.07125 16.7127 7.53955C17.4986 9.00785 17.9181 10.7341 17.9181 12.5C17.916 14.8672 17.1618 17.1367 15.8208 18.8105C14.4799 20.4844 12.6617 21.4259 10.7654 21.4286ZM67.9876 0C66.007 0 64.0709 0.733111 62.4242 2.10663C60.7774 3.48015 59.4939 5.43238 58.736 7.71646C57.978 10.0005 57.7797 12.5139 58.1661 14.9386C58.5525 17.3634 59.5062 19.5907 60.9067 21.3388C62.3072 23.087 64.0915 24.2775 66.034 24.7598C67.9765 25.2421 69.9899 24.9946 71.8197 24.0485C73.6495 23.1024 75.2135 21.5002 76.3138 19.4446C77.4142 17.389 78.0015 14.9723 78.0015 12.5C77.9985 9.18593 76.9425 6.00867 75.0652 3.66527C73.1879 1.32187 70.6425 0.00371733 67.9876 0ZM67.9876 21.4286C66.5729 21.4286 65.19 20.9049 64.0137 19.9238C62.8374 18.9427 61.9207 17.5483 61.3793 15.9168C60.8379 14.2853 60.6962 12.4901 60.9722 10.7581C61.2482 9.02615 61.9295 7.43523 62.9298 6.18655C63.9301 4.93786 65.2046 4.0875 66.5921 3.74299C67.9796 3.39848 69.4178 3.57529 70.7248 4.25107C72.0318 4.92686 73.1489 6.07125 73.9349 7.53955C74.7209 9.00785 75.1404 10.7341 75.1404 12.5C75.1382 14.8672 74.384 17.1367 73.043 18.8105C71.7021 20.4844 69.884 21.4259 67.9876 21.4286Z" fill="black"/>
</svg>
