<svg width="78" height="25" viewBox="0 0 78 25" fill="none" xmlns="http://www.w3.org/2000/svg">
<path d="M38.625 0C36.6444 0 34.7084 0.733111 33.0616 2.10663C31.4148 3.48015 30.1313 5.43238 29.3734 7.71646C28.6154 10.0005 28.4171 12.5139 28.8035 14.9386C29.1899 17.3634 30.1436 19.5907 31.5441 21.3388C32.9446 23.087 34.7289 24.2775 36.6714 24.7598C38.6139 25.2421 40.6274 24.9946 42.4572 24.0485C44.287 23.1024 45.8509 21.5002 46.9512 19.4446C48.0516 17.389 48.6389 14.9723 48.6389 12.5C48.6359 9.18593 47.5799 6.00867 45.7026 3.66527C43.8253 1.32187 41.2799 0.00371733 38.625 0ZM38.625 21.4286C37.2103 21.4286 35.8274 20.9049 34.6511 19.9238C33.4749 18.9427 32.5581 17.5483 32.0167 15.9168C31.4753 14.2853 31.3337 12.4901 31.6097 10.7581C31.8857 9.02615 32.5669 7.43523 33.5672 6.18655C34.5676 4.93786 35.8421 4.0875 37.2296 3.74299C38.6171 3.39848 40.0553 3.57529 41.3623 4.25107C42.6693 4.92686 43.7864 6.07125 44.5723 7.53955C45.3583 9.00785 45.7778 10.7341 45.7778 12.5C45.7757 14.8672 45.0214 17.1367 43.6805 18.8105C42.3395 20.4844 40.5214 21.4259 38.625 21.4286ZM10.0139 0C8.03333 0 6.09725 0.733111 4.45048 2.10663C2.8037 3.48015 1.52019 5.43238 0.762266 7.71646C0.00433885 10.0005 -0.19397 12.5139 0.192419 14.9386C0.578807 17.3634 1.53254 19.5907 2.933 21.3388C4.33347 23.087 6.11778 24.2775 8.06028 24.7598C10.0028 25.2421 12.0162 24.9946 13.846 24.0485C15.6758 23.1024 17.2398 21.5002 18.3401 19.4446C19.4405 17.389 20.0278 14.9723 20.0278 12.5C20.0248 9.18593 18.9688 6.00867 17.0915 3.66527C15.2142 1.32187 12.6688 0.00371733 10.0139 0ZM10.0139 21.4286C8.59921 21.4286 7.21629 20.9049 6.04002 19.9238C4.86375 18.9427 3.94697 17.5483 3.40559 15.9168C2.86421 14.2853 2.72256 12.4901 2.99855 10.7581C3.27455 9.02615 3.95578 7.43523 4.95612 6.18655C5.95645 4.93786 7.23095 4.0875 8.61846 3.74299C10.006 3.39848 11.4441 3.57529 12.7511 4.25107C14.0581 4.92686 15.1753 6.07125 15.9612 7.53955C16.7472 9.00785 17.1667 10.7341 17.1667 12.5C17.1646 14.8672 16.4103 17.1367 15.0693 18.8105C13.7284 20.4844 11.9103 21.4259 10.0139 21.4286ZM67.2361 0C65.2556 0 63.3195 0.733111 61.6727 2.10663C60.0259 3.48015 58.7424 5.43238 57.9845 7.71646C57.2266 10.0005 57.0282 12.5139 57.4146 14.9386C57.801 17.3634 58.7548 19.5907 60.1552 21.3388C61.5557 23.087 63.34 24.2775 65.2825 24.7598C67.225 25.2421 69.2385 24.9946 71.0683 24.0485C72.8981 23.1024 74.462 21.5002 75.5624 19.4446C76.6627 17.389 77.25 14.9723 77.25 12.5C77.247 9.18593 76.191 6.00867 74.3137 3.66527C72.4364 1.32187 69.891 0.00371733 67.2361 0ZM67.2361 21.4286C65.8214 21.4286 64.4385 20.9049 63.2622 19.9238C62.086 18.9427 61.1692 17.5483 60.6278 15.9168C60.0864 14.2853 59.9448 12.4901 60.2208 10.7581C60.4968 9.02615 61.178 7.43523 62.1783 6.18655C63.1787 4.93786 64.4532 4.0875 65.8407 3.74299C67.2282 3.39848 68.6664 3.57529 69.9734 4.25107C71.2804 4.92686 72.3975 6.07125 73.1834 7.53955C73.9694 9.00785 74.3889 10.7341 74.3889 12.5C74.3868 14.8672 73.6325 17.1367 72.2916 18.8105C70.9506 20.4844 69.1325 21.4259 67.2361 21.4286Z" fill="black"/>
</svg>
