<svg width="51" height="64" viewBox="0 0 51 64" fill="none" xmlns="http://www.w3.org/2000/svg">
<path d="M29.1809 28.7894V23.2883M29.1809 28.7894V31.9271M29.1809 28.7894C29.1809 30.1151 29.1809 31.1457 29.2124 31.9833M29.1809 31.9271V31.9833C29.1809 33.2096 29.1809 34.1574 29.1532 34.9266M29.1809 31.9271L29.2124 31.9833M29.2124 31.9833C29.2516 33.0279 29.3399 33.7722 29.5384 34.4142C29.9248 35.6645 30.5963 36.6682 31.4329 37.2455C32.2068 37.78 33.2033 37.78 35.1964 37.78H36.9696C37.1616 37.78 37.2576 37.78 37.322 37.7736C38.753 37.631 39.5891 35.2964 38.8746 33.438C38.8424 33.3542 38.789 33.2348 38.6827 32.996L38.639 32.898C38.5842 32.7752 38.5567 32.7137 38.5313 32.6595C37.5658 30.5985 35.8208 29.7038 34.2121 30.4446C34.1697 30.464 34.1224 30.4878 34.0291 30.5342M29.1532 34.9266C29.12 35.8517 29.0468 36.5183 28.8855 37.1C28.4919 38.5202 27.7369 39.6488 26.7865 40.2372C26.0736 40.6783 25.1701 40.6783 23.3629 40.6783M29.1532 34.9266L24.3326 27.6358M18.8567 23.2883V34.8817C18.8567 38.0832 16.8392 40.6783 14.3505 40.6783" stroke="#A52727" stroke-width="4.3442" stroke-linecap="round" stroke-linejoin="round"/>
<path d="M20.5271 6.9189C21.7972 5.1708 22.4322 4.29675 23.1106 3.80983C24.6152 2.73006 26.447 2.73006 27.9516 3.80983C28.63 4.29675 29.2649 5.1708 30.535 6.9189C31.1073 7.70646 31.3935 8.10026 31.7116 8.41641C32.4103 9.11044 33.2399 9.55253 34.1152 9.69715C34.5142 9.76306 34.9329 9.74486 35.7703 9.70846C37.6294 9.62762 38.559 9.58722 39.3064 9.86004C40.9638 10.465 42.2591 12.1313 42.7293 14.2633C42.9413 15.2247 42.91 16.4204 42.8471 18.8117C42.8187 19.8891 42.8048 20.4278 42.8559 20.9409C42.9683 22.067 43.3119 23.1343 43.8516 24.0329C44.0974 24.4422 44.4033 24.8102 45.0157 25.5463C46.3746 27.1802 47.0541 27.997 47.4327 28.8696C48.2719 30.8052 48.2719 33.1615 47.4327 35.097C47.0541 35.9697 46.3746 36.7864 45.0157 38.4202C44.4033 39.1564 44.0974 39.5245 43.8516 39.9337C43.3119 40.8325 42.9683 41.8997 42.8559 43.0257C42.8048 43.539 42.8187 44.0775 42.8471 45.1548C42.91 47.5462 42.9413 48.7421 42.7293 49.7034C42.2591 51.8354 40.9638 53.5017 39.3064 54.1066C38.559 54.3793 37.6294 54.339 35.7703 54.2582C34.9329 54.2216 34.5142 54.2037 34.1152 54.2695C33.2399 54.4141 32.4103 54.8561 31.7116 55.5502C31.3935 55.8664 31.1073 56.26 30.535 57.0478C29.2649 58.7958 28.63 59.6699 27.9516 60.1568C26.447 61.2365 24.6152 61.2365 23.1106 60.1568C22.4322 59.6699 21.7972 58.7958 20.5271 57.0478C19.9549 56.26 19.6688 55.8664 19.3505 55.5502C18.652 54.8561 17.8223 54.4141 16.9469 54.2695C16.5481 54.2037 16.1293 54.2216 15.2917 54.2582C13.4328 54.339 12.5033 54.3793 11.7559 54.1066C10.0985 53.5017 8.80313 51.8354 8.33287 49.7034C8.12078 48.7421 8.15219 47.5462 8.21503 45.1548C8.24333 44.0775 8.25748 43.539 8.20624 43.0257C8.09381 41.8997 7.75014 40.8325 7.21061 39.9337C6.96485 39.5245 6.65872 39.1564 6.04648 38.4202C4.68754 36.7864 4.00807 35.9697 3.62955 35.097C2.79015 33.1615 2.79015 30.8052 3.62955 28.8696C4.00807 27.997 4.68754 27.1802 6.04648 25.5463C6.65872 24.8102 6.96485 24.4422 7.21061 24.0329C7.75014 23.1343 8.09381 22.067 8.20624 20.9409C8.25748 20.4278 8.24333 19.8891 8.21503 18.8117C8.15219 16.4204 8.12078 15.2247 8.33287 14.2633C8.80313 12.1313 10.0985 10.465 11.7559 9.86004C12.5033 9.58722 13.4328 9.62762 15.2917 9.70846C16.1293 9.74486 16.5481 9.76306 16.9469 9.69715C17.8223 9.55253 18.652 9.11044 19.3505 8.41641C19.6688 8.10026 19.9549 7.70646 20.5271 6.9189Z" stroke="#A52727" stroke-width="4.3442"/>
</svg>
