<svg width="56" height="60" viewBox="0 0 56 60" fill="none" xmlns="http://www.w3.org/2000/svg">
<path d="M40.8915 35.9569C40.1929 35.5763 36.7904 33.7894 36.1545 33.5344C35.5186 33.2906 35.0569 33.1631 34.5935 33.915C34.1405 34.6481 32.806 36.3263 32.3983 36.8156C31.9907 37.305 31.59 37.3425 30.9018 37.0106C30.2032 36.63 27.9714 35.8481 25.3216 33.2906C23.2519 31.3087 21.8738 28.8675 21.4644 28.1156C21.0567 27.3731 21.4191 26.9531 21.764 26.5819C22.0811 26.2406 22.4626 25.7231 22.8163 25.2731C23.1526 24.8231 23.2606 24.5212 23.5062 24.0337C23.7327 23.5069 23.616 23.0962 23.4435 22.725C23.271 22.3537 21.8825 18.6731 21.3023 17.2069C20.7483 15.7519 20.1682 15.9375 19.7413 15.9375C19.3424 15.8981 18.879 15.8981 18.4173 15.8981C17.9556 15.8981 17.2012 16.0838 16.5653 16.7963C15.9294 17.5481 14.1332 19.3444 14.1332 22.9781C14.1332 26.6213 16.6193 30.1462 16.9643 30.6731C17.318 31.1606 21.8546 38.6606 28.8147 41.8837C30.475 42.6356 31.7642 43.0856 32.7712 43.4569C34.4315 44.0231 35.9472 43.9444 37.1441 43.7587C38.4681 43.5244 41.2452 41.9513 41.8271 40.1944C42.4177 38.4263 42.4177 36.9619 42.2452 36.63C42.0727 36.2887 41.6197 36.1031 40.9211 35.7712L40.8915 35.9569ZM28.2694 54.375H28.2328C24.1125 54.375 20.0393 53.1731 16.4817 50.9269L15.6472 50.3906L6.93627 52.8319L9.27777 43.71L8.71505 42.7725C6.41884 38.8369 5.19408 34.2956 5.19408 29.6288C5.19408 16.0162 15.5479 4.9125 28.2868 4.9125C34.4576 4.9125 40.2469 7.5 44.6024 12.1875C48.9578 16.8356 51.3621 23.0663 51.3621 29.6681C51.3446 43.2713 40.9995 54.375 28.2781 54.375H28.2694ZM47.9143 8.62312C42.6145 3.11438 35.6458 0 28.2328 0C12.9433 0 0.493662 13.3406 0.484951 29.7356C0.484951 34.9706 1.75501 40.0781 4.1871 44.5987L0.249756 60L14.9678 55.8694C19.0236 58.2225 23.5881 59.4825 28.2345 59.4919H28.2432C43.5414 59.4919 55.991 46.1513 55.9998 29.745C55.9998 21.8063 53.1234 14.3344 47.8794 8.71875L47.9143 8.62312Z" fill="black"/>
</svg>
