<svg width="32" height="38" viewBox="0 0 32 38" fill="none" xmlns="http://www.w3.org/2000/svg">
<path fill-rule="evenodd" clip-rule="evenodd" d="M9.55014 0.114C11.1901 0.0211072 11.7129 0 15.8889 0C20.0657 0 20.5877 0.0221609 22.2268 0.114C23.8642 0.205839 24.9824 0.527785 25.9604 0.9975C26.9862 1.47476 27.9154 2.22255 28.6834 3.18884C29.4655 4.13785 30.0707 5.28625 30.4567 6.55395C30.8368 7.76255 31.0965 9.14429 31.1717 11.1667C31.2469 13.1934 31.2639 13.8394 31.2639 19C31.2639 24.1606 31.246 24.8066 31.1717 26.8334C31.0973 28.8556 30.8368 30.2375 30.4567 31.446C30.0638 32.6949 29.5376 33.7556 28.6834 34.8111C27.9155 35.7775 26.9862 36.5254 25.9604 37.0025C24.9824 37.4721 23.8642 37.7931 22.2277 37.886C20.5877 37.9789 20.0649 38 15.8889 38C11.7129 38 11.1901 37.9779 9.55014 37.886C7.91357 37.7941 6.79546 37.4721 5.81744 37.0025C4.80695 36.517 3.94852 35.8666 3.09436 34.8111C2.31229 33.8621 1.70713 32.7137 1.3211 31.446C0.941006 30.2375 0.681336 28.8556 0.606166 26.8334C0.530996 24.8066 0.513916 24.1616 0.513916 19C0.513916 13.8383 0.531849 13.1934 0.606166 11.1678C0.680483 9.14429 0.941006 7.76255 1.3211 6.55395C1.70731 5.28634 2.31243 4.13799 3.09436 3.18884C3.8623 2.22238 4.79159 1.47454 5.81744 0.9975C6.79546 0.527785 7.91357 0.206893 9.55014 0.114ZM22.1021 3.534C20.4809 3.44321 19.994 3.42316 15.8889 3.42316C11.7838 3.42316 11.2969 3.44321 9.67571 3.534C8.17665 3.61845 7.36263 3.92771 6.82108 4.18845C6.10358 4.53255 5.59108 4.94421 5.05295 5.60921C4.51569 6.27421 4.18171 6.90755 3.90325 7.79421C3.69226 8.46345 3.442 9.46939 3.37367 11.3219C3.3002 13.3253 3.28397 13.927 3.28397 19C3.28397 24.073 3.3002 24.6746 3.37367 26.6781C3.442 28.5306 3.69226 29.5365 3.90325 30.2059C4.14956 31.0311 4.54243 31.7777 5.05295 32.3909C5.549 33.0217 6.1532 33.5072 6.82108 33.8115C7.36263 34.0724 8.17665 34.3815 9.67571 34.466C11.2969 34.5569 11.7829 34.5769 15.8889 34.5769C19.9949 34.5769 20.4809 34.5569 22.1021 34.466C23.6012 34.3815 24.4152 34.0724 24.9568 33.8115C25.6743 33.4675 26.1868 33.0559 26.7249 32.3909C27.2354 31.7778 27.6283 31.0311 27.8746 30.2059C28.0856 29.5365 28.3358 28.5306 28.4042 26.6781C28.4777 24.6746 28.4939 24.073 28.4939 19C28.4939 13.927 28.4777 13.3253 28.4042 11.3219C28.3358 9.46939 28.0856 8.46345 27.8746 7.79421C27.5961 6.90755 27.2631 6.27421 26.7249 5.60921C26.1868 4.94529 25.6743 4.53255 24.9568 4.18845C24.4152 3.92771 23.6012 3.61845 22.1021 3.534ZM13.9258 24.857C14.5482 25.1757 15.2152 25.3396 15.8889 25.3396C17.2496 25.3396 18.5544 24.6717 19.5164 23.4828C20.4786 22.2939 21.0191 20.6813 21.0191 19C21.0191 17.3187 20.4786 15.7061 19.5164 14.5172C18.5544 13.3283 17.2496 12.6603 15.8889 12.6603C15.2152 12.6603 14.5482 12.8243 13.9258 13.1429C13.3033 13.4615 12.7378 13.9285 12.2614 14.5172C11.785 15.1059 11.4071 15.8047 11.1493 16.5739C10.8915 17.343 10.7588 18.1675 10.7588 19C10.7588 19.8325 10.8915 20.657 11.1493 21.4261C11.4071 22.1953 11.785 22.8941 12.2614 23.4828C12.7378 24.0714 13.3033 24.5385 13.9258 24.857ZM10.3009 12.0944C11.7829 10.2629 13.793 9.23398 15.8889 9.23398C17.9849 9.23398 19.995 10.2629 21.477 12.0944C22.959 13.9259 23.7917 16.41 23.7917 19C23.7917 21.59 22.959 24.074 21.477 25.9056C19.995 27.7371 17.9849 28.766 15.8889 28.766C13.793 28.766 11.7829 27.7371 10.3009 25.9056C8.81882 24.074 7.98621 21.59 7.98621 19C7.98621 16.41 8.81882 13.9259 10.3009 12.0944ZM25.544 10.689C25.8943 10.2561 26.0911 9.66891 26.0911 9.05666C26.0911 8.44439 25.8943 7.85723 25.544 7.4243C25.1936 6.99138 24.7185 6.74816 24.223 6.74816C23.7276 6.74816 23.2524 6.99138 22.9021 7.4243C22.5517 7.85723 22.3549 8.44439 22.3549 9.05666C22.3549 9.66891 22.5517 10.2561 22.9021 10.689C23.2524 11.1219 23.7276 11.3652 24.223 11.3652C24.7185 11.3652 25.1936 11.1219 25.544 10.689Z" fill="black"/>
</svg>
