<svg width="57" height="60" viewBox="0 0 57 60" fill="none" xmlns="http://www.w3.org/2000/svg">
<path d="M41.3915 35.9569C40.6929 35.5763 37.2904 33.7894 36.6545 33.5344C36.0186 33.2906 35.5569 33.1631 35.0935 33.915C34.6405 34.6481 33.306 36.3263 32.8983 36.8156C32.4907 37.305 32.09 37.3425 31.4018 37.0106C30.7032 36.63 28.4714 35.8481 25.8216 33.2906C23.7519 31.3087 22.3738 28.8675 21.9644 28.1156C21.5567 27.3731 21.9191 26.9531 22.264 26.5819C22.5811 26.2406 22.9626 25.7231 23.3163 25.2731C23.6526 24.8231 23.7606 24.5212 24.0062 24.0337C24.2327 23.5069 24.116 23.0962 23.9435 22.725C23.771 22.3537 22.3825 18.6731 21.8023 17.2069C21.2483 15.7519 20.6682 15.9375 20.2413 15.9375C19.8424 15.8981 19.379 15.8981 18.9173 15.8981C18.4556 15.8981 17.7012 16.0838 17.0653 16.7963C16.4294 17.5481 14.6332 19.3444 14.6332 22.9781C14.6332 26.6213 17.1193 30.1462 17.4643 30.6731C17.818 31.1606 22.3546 38.6606 29.3147 41.8837C30.975 42.6356 32.2642 43.0856 33.2712 43.4569C34.9315 44.0231 36.4472 43.9444 37.6441 43.7587C38.9681 43.5244 41.7452 41.9513 42.3271 40.1944C42.9177 38.4263 42.9177 36.9619 42.7452 36.63C42.5727 36.2887 42.1197 36.1031 41.4211 35.7712L41.3915 35.9569ZM28.7694 54.375H28.7328C24.6125 54.375 20.5393 53.1731 16.9817 50.9269L16.1472 50.3906L7.43627 52.8319L9.77777 43.71L9.21505 42.7725C6.91884 38.8369 5.69408 34.2956 5.69408 29.6288C5.69408 16.0162 16.0479 4.9125 28.7868 4.9125C34.9576 4.9125 40.7469 7.5 45.1024 12.1875C49.4578 16.8356 51.8621 23.0663 51.8621 29.6681C51.8446 43.2713 41.4995 54.375 28.7781 54.375H28.7694ZM48.4143 8.62312C43.1145 3.11438 36.1458 0 28.7328 0C13.4433 0 0.993662 13.3406 0.984951 29.7356C0.984951 34.9706 2.25501 40.0781 4.6871 44.5987L0.749756 60L15.4678 55.8694C19.5236 58.2225 24.0881 59.4825 28.7345 59.4919H28.7432C44.0414 59.4919 56.491 46.1513 56.4998 29.745C56.4998 21.8063 53.6234 14.3344 48.3794 8.71875L48.4143 8.62312Z" fill="black"/>
</svg>
