<svg width="61" height="60" viewBox="0 0 61 60" fill="none" xmlns="http://www.w3.org/2000/svg">
<path fill-rule="evenodd" clip-rule="evenodd" d="M18.1317 0.18C21.3317 0.0333272 22.3517 0 30.5 0C38.6499 0 39.6683 0.0349909 42.8665 0.18C46.0615 0.325009 48.2434 0.833345 50.1516 1.575C52.1532 2.32857 53.9663 3.50929 55.4649 5.03501C56.9908 6.53345 58.1717 8.34671 58.925 10.3483C59.6665 12.2567 60.1733 14.4383 60.32 17.6317C60.4667 20.8317 60.5 21.8517 60.5 30C60.5 38.1483 60.4651 39.1683 60.32 42.3685C60.1749 45.5615 59.6665 47.7434 58.925 49.6516C58.1584 51.6235 57.1315 53.2983 55.4649 54.9649C53.9665 56.4908 52.1532 57.6717 50.1516 58.425C48.2434 59.1665 46.0615 59.6733 42.8685 59.82C39.6683 59.9667 38.6483 60 30.5 60C22.3517 60 21.3317 59.9651 18.1317 59.82C14.9383 59.6749 12.7567 59.1665 10.8483 58.425C8.87666 57.6584 7.20167 56.6315 5.53501 54.9649C4.00902 53.4665 2.82822 51.6532 2.075 49.6516C1.33335 47.7434 0.826673 45.5615 0.68 42.3685C0.533327 39.1683 0.5 38.1499 0.5 30C0.5 21.85 0.534991 20.8317 0.68 17.6333C0.825009 14.4383 1.33335 12.2567 2.075 10.3483C2.82857 8.34685 4.00929 6.53367 5.53501 5.03501C7.03343 3.50902 8.84668 2.32822 10.8483 1.575C12.7567 0.833345 14.9383 0.326673 18.1317 0.18ZM42.6233 5.58C39.4599 5.43665 38.51 5.40499 30.5 5.40499C22.49 5.40499 21.54 5.43665 18.3767 5.58C15.4517 5.71334 13.8633 6.20165 12.8067 6.61334C11.4067 7.15666 10.4067 7.80665 9.35665 8.85665C8.30835 9.90665 7.65666 10.9067 7.11334 12.3067C6.70165 13.3633 6.21334 14.9517 6.08 17.8767C5.93665 21.04 5.90499 21.99 5.90499 30C5.90499 38.01 5.93665 38.9599 6.08 42.1233C6.21334 45.0483 6.70165 46.6366 7.11334 47.6935C7.59394 48.9965 8.36052 50.1753 9.35665 51.1435C10.3246 52.1395 11.5035 52.9061 12.8067 53.3866C13.8633 53.7985 15.4517 54.2866 18.3767 54.42C21.54 54.5635 22.4883 54.5951 30.5 54.5951C38.5116 54.5951 39.4599 54.5635 42.6233 54.42C45.5483 54.2866 47.1366 53.7985 48.1935 53.3866C49.5934 52.8434 50.5935 52.1935 51.6435 51.1435C52.6395 50.1755 53.4061 48.9965 53.8866 47.6935C54.2985 46.6366 54.7866 45.0483 54.92 42.1233C55.0635 38.9599 55.0951 38.01 55.0951 30C55.0951 21.99 55.0635 21.04 54.92 17.8767C54.7866 14.9517 54.2985 13.3633 53.8866 12.3067C53.3434 10.9067 52.6935 9.90665 51.6435 8.85665C50.5935 7.80835 49.5934 7.15666 48.1935 6.61334C47.1366 6.20165 45.5483 5.71334 42.6233 5.58ZM26.6695 39.2479C27.884 39.7511 29.1855 40.0099 30.5 40.0099C33.155 40.0099 35.7009 38.9553 37.5781 37.0781C39.4555 35.2009 40.5102 32.6547 40.5102 30C40.5102 27.3453 39.4555 24.7991 37.5781 22.9219C35.7009 21.0446 33.155 19.99 30.5 19.99C29.1855 19.99 27.884 20.2489 26.6695 20.752C25.4548 21.255 24.3514 21.9923 23.4219 22.9219C22.4924 23.8514 21.7551 24.9548 21.252 26.1693C20.749 27.3837 20.4901 28.6855 20.4901 30C20.4901 31.3145 20.749 32.6163 21.252 33.8307C21.7551 35.0452 22.4924 36.1486 23.4219 37.0781C24.3514 38.0075 25.4548 38.745 26.6695 39.2479ZM19.5965 19.0964C22.4883 16.2046 26.4105 14.58 30.5 14.58C34.5898 14.58 38.5119 16.2046 41.4036 19.0964C44.2954 21.9882 45.92 25.9105 45.92 30C45.92 34.0895 44.2954 38.0116 41.4036 40.9036C38.5119 43.7954 34.5898 45.42 30.5 45.42C26.4105 45.42 22.4883 43.7954 19.5965 40.9036C16.7047 38.0116 15.0801 34.0895 15.0801 30C15.0801 25.9105 16.7047 21.9882 19.5965 19.0964ZM49.3392 16.8774C50.0226 16.1938 50.4066 15.2667 50.4066 14.3C50.4066 13.3333 50.0226 12.4061 49.3392 11.7226C48.6555 11.039 47.7285 10.655 46.7616 10.655C45.7951 10.655 44.8678 11.039 44.1844 11.7226C43.5006 12.4061 43.1166 13.3333 43.1166 14.3C43.1166 15.2667 43.5006 16.1938 44.1844 16.8774C44.8678 17.561 45.7951 17.945 46.7616 17.945C47.7285 17.945 48.6555 17.561 49.3392 16.8774Z" fill="black"/>
</svg>
