<svg width="31" height="38" viewBox="0 0 31 38" fill="none" xmlns="http://www.w3.org/2000/svg">
<path fill-rule="evenodd" clip-rule="evenodd" d="M9.06991 0.114C10.7099 0.0211072 11.2327 0 15.4087 0C19.5855 0 20.1074 0.0221609 21.7465 0.114C23.384 0.205839 24.5022 0.527785 25.4802 0.9975C26.5059 1.47476 27.4352 2.22255 28.2032 3.18884C28.9852 4.13785 29.5904 5.28625 29.9765 6.55395C30.3565 7.76255 30.6162 9.14429 30.6914 11.1667C30.7666 13.1934 30.7837 13.8394 30.7837 19C30.7837 24.1606 30.7658 24.8066 30.6914 26.8334C30.6171 28.8556 30.3565 30.2375 29.9765 31.446C29.5836 32.6949 29.0574 33.7556 28.2032 34.8111C27.4353 35.7775 26.5059 36.5254 25.4802 37.0025C24.5022 37.4721 23.384 37.7931 21.7475 37.886C20.1074 37.9789 19.5847 38 15.4087 38C11.2327 38 10.7099 37.9779 9.06991 37.886C7.43334 37.7941 6.31523 37.4721 5.33721 37.0025C4.32673 36.517 3.4683 35.8666 2.61413 34.8111C1.83206 33.8621 1.2269 32.7137 0.840879 31.446C0.460781 30.2375 0.201111 28.8556 0.125941 26.8334C0.0507716 24.8066 0.0336914 24.1616 0.0336914 19C0.0336914 13.8383 0.0516242 13.1934 0.125941 11.1678C0.200259 9.14429 0.460781 7.76255 0.840879 6.55395C1.22708 5.28634 1.8322 4.13799 2.61413 3.18884C3.38207 2.22238 4.31137 1.47454 5.33721 0.9975C6.31523 0.527785 7.43334 0.206893 9.06991 0.114ZM21.6219 3.534C20.0006 3.44321 19.5138 3.42316 15.4087 3.42316C11.3036 3.42316 10.8167 3.44321 9.19549 3.534C7.69642 3.61845 6.8824 3.92771 6.34085 4.18845C5.62336 4.53255 5.11085 4.94421 4.57273 5.60921C4.03547 6.27421 3.70148 6.90755 3.42303 7.79421C3.21204 8.46345 2.96178 9.46939 2.89344 11.3219C2.81998 13.3253 2.80375 13.927 2.80375 19C2.80375 24.073 2.81998 24.6746 2.89344 26.6781C2.96178 28.5306 3.21204 29.5365 3.42303 30.2059C3.66933 31.0311 4.06221 31.7777 4.57273 32.3909C5.06878 33.0217 5.67298 33.5072 6.34085 33.8115C6.8824 34.0724 7.69642 34.3815 9.19549 34.466C10.8167 34.5569 11.3027 34.5769 15.4087 34.5769C19.5147 34.5769 20.0006 34.5569 21.6219 34.466C23.1209 34.3815 23.935 34.0724 24.4766 33.8115C25.194 33.4675 25.7066 33.0559 26.2447 32.3909C26.7552 31.7778 27.1481 31.0311 27.3943 30.2059C27.6054 29.5365 27.8556 28.5306 27.9239 26.6781C27.9975 24.6746 28.0137 24.073 28.0137 19C28.0137 13.927 27.9975 13.3253 27.9239 11.3219C27.8556 9.46939 27.6054 8.46345 27.3943 7.79421C27.1159 6.90755 26.7828 6.27421 26.2447 5.60921C25.7066 4.94529 25.194 4.53255 24.4766 4.18845C23.935 3.92771 23.1209 3.61845 21.6219 3.534ZM13.4456 24.857C14.068 25.1757 14.735 25.3396 15.4087 25.3396C16.7694 25.3396 18.0742 24.6717 19.0362 23.4828C19.9984 22.2939 20.5389 20.6813 20.5389 19C20.5389 17.3187 19.9984 15.7061 19.0362 14.5172C18.0742 13.3283 16.7694 12.6603 15.4087 12.6603C14.735 12.6603 14.068 12.8243 13.4456 13.1429C12.823 13.4615 12.2576 13.9285 11.7812 14.5172C11.3048 15.1059 10.9269 15.8047 10.6691 16.5739C10.4113 17.343 10.2786 18.1675 10.2786 19C10.2786 19.8325 10.4113 20.657 10.6691 21.4261C10.9269 22.1953 11.3048 22.8941 11.7812 23.4828C12.2576 24.0714 12.823 24.5385 13.4456 24.857ZM9.82065 12.0944C11.3027 10.2629 13.3128 9.23398 15.4087 9.23398C17.5047 9.23398 19.5148 10.2629 20.9968 12.0944C22.4788 13.9259 23.3114 16.41 23.3114 19C23.3114 21.59 22.4788 24.074 20.9968 25.9056C19.5148 27.7371 17.5047 28.766 15.4087 28.766C13.3128 28.766 11.3027 27.7371 9.82065 25.9056C8.3386 24.074 7.50598 21.59 7.50598 19C7.50598 16.41 8.3386 13.9259 9.82065 12.0944ZM25.0638 10.689C25.414 10.2561 25.6108 9.66891 25.6108 9.05666C25.6108 8.44439 25.414 7.85723 25.0638 7.4243C24.7134 6.99138 24.2383 6.74816 23.7428 6.74816C23.2474 6.74816 22.7722 6.99138 22.4219 7.4243C22.0715 7.85723 21.8747 8.44439 21.8747 9.05666C21.8747 9.66891 22.0715 10.2561 22.4219 10.689C22.7722 11.1219 23.2474 11.3652 23.7428 11.3652C24.2383 11.3652 24.7134 11.1219 25.0638 10.689Z" fill="black"/>
</svg>
