<svg width="32" height="38" viewBox="0 0 32 38" fill="none" xmlns="http://www.w3.org/2000/svg">
<path fill-rule="evenodd" clip-rule="evenodd" d="M9.55673 0.114C11.1967 0.0211072 11.7195 0 15.8955 0C20.0723 0 20.5942 0.0221609 22.2334 0.114C23.8708 0.205839 24.989 0.527785 25.967 0.9975C26.9928 1.47476 27.922 2.22255 28.69 3.18884C29.472 4.13785 30.0773 5.28625 30.4633 6.55395C30.8434 7.76255 31.1031 9.14429 31.1783 11.1667C31.2535 13.1934 31.2705 13.8394 31.2705 19C31.2705 24.1606 31.2526 24.8066 31.1783 26.8334C31.1039 28.8556 30.8434 30.2375 30.4633 31.446C30.0704 32.6949 29.5442 33.7556 28.69 34.8111C27.9221 35.7775 26.9928 36.5254 25.967 37.0025C24.989 37.4721 23.8708 37.7931 22.2343 37.886C20.5942 37.9789 20.0715 38 15.8955 38C11.7195 38 11.1967 37.9779 9.55673 37.886C7.92016 37.7941 6.80205 37.4721 5.82403 37.0025C4.81354 36.517 3.95511 35.8666 3.10095 34.8111C2.31888 33.8621 1.71372 32.7137 1.3277 31.446C0.947597 30.2375 0.687928 28.8556 0.612758 26.8334C0.537588 24.8066 0.520508 24.1616 0.520508 19C0.520508 13.8383 0.538441 13.1934 0.612758 11.1678C0.687075 9.14429 0.947597 7.76255 1.3277 6.55395C1.7139 5.28634 2.31902 4.13799 3.10095 3.18884C3.86889 2.22238 4.79818 1.47454 5.82403 0.9975C6.80205 0.527785 7.92016 0.206893 9.55673 0.114ZM22.1087 3.534C20.4875 3.44321 20.0006 3.42316 15.8955 3.42316C11.7904 3.42316 11.3035 3.44321 9.6823 3.534C8.18324 3.61845 7.36922 3.92771 6.82767 4.18845C6.11017 4.53255 5.59767 4.94421 5.05954 5.60921C4.52228 6.27421 4.1883 6.90755 3.90984 7.79421C3.69886 8.46345 3.44859 9.46939 3.38026 11.3219C3.30679 13.3253 3.29057 13.927 3.29057 19C3.29057 24.073 3.30679 24.6746 3.38026 26.6781C3.44859 28.5306 3.69886 29.5365 3.90984 30.2059C4.15615 31.0311 4.54902 31.7777 5.05954 32.3909C5.5556 33.0217 6.15979 33.5072 6.82767 33.8115C7.36922 34.0724 8.18324 34.3815 9.6823 34.466C11.3035 34.5569 11.7895 34.5769 15.8955 34.5769C20.0015 34.5769 20.4875 34.5569 22.1087 34.466C23.6077 34.3815 24.4218 34.0724 24.9634 33.8115C25.6809 33.4675 26.1934 33.0559 26.7315 32.3909C27.242 31.7778 27.6349 31.0311 27.8812 30.2059C28.0922 29.5365 28.3424 28.5306 28.4108 26.6781C28.4843 24.6746 28.5005 24.073 28.5005 19C28.5005 13.927 28.4843 13.3253 28.4108 11.3219C28.3424 9.46939 28.0922 8.46345 27.8812 7.79421C27.6027 6.90755 27.2697 6.27421 26.7315 5.60921C26.1934 4.94529 25.6809 4.53255 24.9634 4.18845C24.4218 3.92771 23.6077 3.61845 22.1087 3.534ZM13.9324 24.857C14.5548 25.1757 15.2218 25.3396 15.8955 25.3396C17.2562 25.3396 18.561 24.6717 19.523 23.4828C20.4852 22.2939 21.0257 20.6813 21.0257 19C21.0257 17.3187 20.4852 15.7061 19.523 14.5172C18.561 13.3283 17.2562 12.6603 15.8955 12.6603C15.2218 12.6603 14.5548 12.8243 13.9324 13.1429C13.3099 13.4615 12.7444 13.9285 12.268 14.5172C11.7916 15.1059 11.4137 15.8047 11.1559 16.5739C10.8981 17.343 10.7654 18.1675 10.7654 19C10.7654 19.8325 10.8981 20.657 11.1559 21.4261C11.4137 22.1953 11.7916 22.8941 12.268 23.4828C12.7444 24.0714 13.3099 24.5385 13.9324 24.857ZM10.3075 12.0944C11.7895 10.2629 13.7996 9.23398 15.8955 9.23398C17.9915 9.23398 20.0016 10.2629 21.4836 12.0944C22.9656 13.9259 23.7983 16.41 23.7983 19C23.7983 21.59 22.9656 24.074 21.4836 25.9056C20.0016 27.7371 17.9915 28.766 15.8955 28.766C13.7996 28.766 11.7895 27.7371 10.3075 25.9056C8.82541 24.074 7.9928 21.59 7.9928 19C7.9928 16.41 8.82541 13.9259 10.3075 12.0944ZM25.5506 10.689C25.9009 10.2561 26.0977 9.66891 26.0977 9.05666C26.0977 8.44439 25.9009 7.85723 25.5506 7.4243C25.2002 6.99138 24.7251 6.74816 24.2296 6.74816C23.7342 6.74816 23.259 6.99138 22.9087 7.4243C22.5583 7.85723 22.3615 8.44439 22.3615 9.05666C22.3615 9.66891 22.5583 10.2561 22.9087 10.689C23.259 11.1219 23.7342 11.3652 24.2296 11.3652C24.7251 11.3652 25.2002 11.1219 25.5506 10.689Z" fill="black"/>
</svg>
