<svg width="60" height="60" viewBox="0 0 60 60" fill="none" xmlns="http://www.w3.org/2000/svg">
<path fill-rule="evenodd" clip-rule="evenodd" d="M17.6317 0.18C20.8317 0.0333272 21.8517 0 30 0C38.1499 0 39.1683 0.0349909 42.3665 0.18C45.5615 0.325009 47.7434 0.833345 49.6516 1.575C51.6532 2.32857 53.4663 3.50929 54.9649 5.03501C56.4908 6.53345 57.6717 8.34671 58.425 10.3483C59.1665 12.2567 59.6733 14.4383 59.82 17.6317C59.9667 20.8317 60 21.8517 60 30C60 38.1483 59.9651 39.1683 59.82 42.3685C59.6749 45.5615 59.1665 47.7434 58.425 49.6516C57.6584 51.6235 56.6315 53.2983 54.9649 54.9649C53.4665 56.4908 51.6532 57.6717 49.6516 58.425C47.7434 59.1665 45.5615 59.6733 42.3685 59.82C39.1683 59.9667 38.1483 60 30 60C21.8517 60 20.8317 59.9651 17.6317 59.82C14.4383 59.6749 12.2567 59.1665 10.3483 58.425C8.37666 57.6584 6.70167 56.6315 5.03501 54.9649C3.50902 53.4665 2.32822 51.6532 1.575 49.6516C0.833345 47.7434 0.326673 45.5615 0.18 42.3685C0.0333272 39.1683 0 38.1499 0 30C0 21.85 0.0349909 20.8317 0.18 17.6333C0.325009 14.4383 0.833345 12.2567 1.575 10.3483C2.32857 8.34685 3.50929 6.53367 5.03501 5.03501C6.53343 3.50902 8.34668 2.32822 10.3483 1.575C12.2567 0.833345 14.4383 0.326673 17.6317 0.18ZM42.1233 5.58C38.9599 5.43665 38.01 5.40499 30 5.40499C21.99 5.40499 21.04 5.43665 17.8767 5.58C14.9517 5.71334 13.3633 6.20165 12.3067 6.61334C10.9067 7.15666 9.90665 7.80665 8.85665 8.85665C7.80835 9.90665 7.15666 10.9067 6.61334 12.3067C6.20165 13.3633 5.71334 14.9517 5.58 17.8767C5.43665 21.04 5.40499 21.99 5.40499 30C5.40499 38.01 5.43665 38.9599 5.58 42.1233C5.71334 45.0483 6.20165 46.6366 6.61334 47.6935C7.09394 48.9965 7.86052 50.1753 8.85665 51.1435C9.82456 52.1395 11.0035 52.9061 12.3067 53.3866C13.3633 53.7985 14.9517 54.2866 17.8767 54.42C21.04 54.5635 21.9883 54.5951 30 54.5951C38.0116 54.5951 38.9599 54.5635 42.1233 54.42C45.0483 54.2866 46.6366 53.7985 47.6935 53.3866C49.0934 52.8434 50.0935 52.1935 51.1435 51.1435C52.1395 50.1755 52.9061 48.9965 53.3866 47.6935C53.7985 46.6366 54.2866 45.0483 54.42 42.1233C54.5635 38.9599 54.5951 38.01 54.5951 30C54.5951 21.99 54.5635 21.04 54.42 17.8767C54.2866 14.9517 53.7985 13.3633 53.3866 12.3067C52.8434 10.9067 52.1935 9.90665 51.1435 8.85665C50.0935 7.80835 49.0934 7.15666 47.6935 6.61334C46.6366 6.20165 45.0483 5.71334 42.1233 5.58ZM26.1695 39.2479C27.384 39.7511 28.6855 40.0099 30 40.0099C32.655 40.0099 35.2009 38.9553 37.0781 37.0781C38.9555 35.2009 40.0102 32.6547 40.0102 30C40.0102 27.3453 38.9555 24.7991 37.0781 22.9219C35.2009 21.0446 32.655 19.99 30 19.99C28.6855 19.99 27.384 20.2489 26.1695 20.752C24.9548 21.255 23.8514 21.9923 22.9219 22.9219C21.9924 23.8514 21.2551 24.9548 20.752 26.1693C20.249 27.3837 19.9901 28.6855 19.9901 30C19.9901 31.3145 20.249 32.6163 20.752 33.8307C21.2551 35.0452 21.9924 36.1486 22.9219 37.0781C23.8514 38.0075 24.9548 38.745 26.1695 39.2479ZM19.0965 19.0964C21.9883 16.2046 25.9105 14.58 30 14.58C34.0898 14.58 38.0119 16.2046 40.9036 19.0964C43.7954 21.9882 45.42 25.9105 45.42 30C45.42 34.0895 43.7954 38.0116 40.9036 40.9036C38.0119 43.7954 34.0898 45.42 30 45.42C25.9105 45.42 21.9883 43.7954 19.0965 40.9036C16.2047 38.0116 14.5801 34.0895 14.5801 30C14.5801 25.9105 16.2047 21.9882 19.0965 19.0964ZM48.8392 16.8774C49.5226 16.1938 49.9066 15.2667 49.9066 14.3C49.9066 13.3333 49.5226 12.4061 48.8392 11.7226C48.1555 11.039 47.2285 10.655 46.2616 10.655C45.2951 10.655 44.3678 11.039 43.6844 11.7226C43.0006 12.4061 42.6166 13.3333 42.6166 14.3C42.6166 15.2667 43.0006 16.1938 43.6844 16.8774C44.3678 17.561 45.2951 17.945 46.2616 17.945C47.2285 17.945 48.1555 17.561 48.8392 16.8774Z" fill="black"/>
</svg>
