<svg width="58" height="56" viewBox="0 0 58 56" fill="none" xmlns="http://www.w3.org/2000/svg">
<path d="M54.3881 9.15285L31.4556 0.401999C30.7571 0.136607 30.0082 0 29.252 0C28.4957 0 27.7468 0.136607 27.0483 0.401999L4.11584 9.15285C1.97787 9.96231 0.580421 11.8766 0.580421 13.9986C0.580421 35.7117 14.2563 50.7194 27.0363 55.598C28.4457 56.134 30.0343 56.134 31.4437 55.598C41.6797 51.6929 57.9115 38.2057 57.9115 13.9986C57.9115 11.8766 56.5141 9.96231 54.3881 9.15285ZM29.2579 48.8161L29.246 7.14016L50.2555 15.1581C49.8613 31.7191 40.4494 43.7187 29.2579 48.8161Z" fill="#A52727"/>
</svg>
