<svg width="75" height="61" viewBox="0 0 75 61" fill="none" xmlns="http://www.w3.org/2000/svg">
<path d="M16.6719 60.5699C7.69333 60.5699 0.41478 52.6605 0.41478 42.9037V17.6662C0.41478 7.90944 7.69333 0 16.6719 0H58.4758C67.4544 0 74.7329 7.90944 74.7329 17.6662V42.9037C74.7329 52.6605 67.4544 60.5699 58.4758 60.5699H16.6719ZM46.8636 5.04749H16.6719C10.2586 5.04749 5.05966 10.6971 5.05966 17.6662V42.9037C5.05966 49.8728 10.2586 55.5224 16.6719 55.5224H46.8636V5.04749ZM58.4758 5.04749H51.5085V55.5224H58.4758C64.7203 55.5224 69.8135 50.1663 70.0773 43.4511L70.088 42.9037V17.6662C70.088 10.6971 64.8891 5.04749 58.4758 5.04749ZM37.5738 45.4275C38.8565 45.4275 39.8963 46.5574 39.8963 47.9512C39.8963 49.345 38.8565 50.4749 37.5738 50.4749H14.3494C13.0668 50.4749 12.027 49.345 12.027 47.9512C12.027 46.5574 13.0668 45.4275 14.3494 45.4275H37.5738ZM63.1207 37.8562C64.4033 37.8562 65.4431 38.9861 65.4431 40.38C65.4431 41.7738 64.4033 42.9037 63.1207 42.9037H58.4758C57.1932 42.9037 56.1534 41.7738 56.1534 40.38C56.1534 38.9861 57.1932 37.8562 58.4758 37.8562H63.1207ZM33.0089 15.9844C35.9756 19.5922 36.0794 24.6329 33.4479 28.8025L33.1321 29.2796C31.6123 31.4719 31.6123 33.9269 33.1919 36.4278C33.9178 37.577 33.6489 39.148 32.5914 39.9368C31.5339 40.7255 30.0882 40.4333 29.3623 39.2842C26.7832 35.2007 26.68 30.5894 29.1058 26.7219L29.4222 26.2425C30.9944 23.9745 31.0847 21.5161 29.7885 19.6674L29.5454 19.3476C28.6907 18.3083 28.7732 16.7129 29.7297 15.7841C30.6861 14.8554 32.1543 14.9451 33.0089 15.9844ZM21.879 13.7143C24.4697 17.8161 24.5704 22.624 22.0888 26.3686L21.7786 26.8127C20.1783 28.9895 20.2779 31.6057 21.8146 33.8074C22.5897 34.9179 22.3895 36.501 21.3676 37.3433C20.3456 38.1856 18.8888 37.9681 18.1137 36.8575C15.3496 32.8972 15.1532 27.7381 18.1496 23.6622C19.6241 21.6567 19.6235 19.0629 18.0493 16.5707C17.3235 15.4215 17.5924 13.8505 18.6499 13.0617C19.7074 12.273 21.1531 12.5651 21.879 13.7143ZM63.1207 27.7612C64.4033 27.7612 65.4431 28.8911 65.4431 30.285C65.4431 31.6788 64.4033 32.8087 63.1207 32.8087H58.4758C57.1932 32.8087 56.1534 31.6788 56.1534 30.285C56.1534 28.8911 57.1932 27.7612 58.4758 27.7612H63.1207ZM63.1207 17.6662C64.4033 17.6662 65.4431 18.7962 65.4431 20.19C65.4431 21.5838 64.4033 22.7137 63.1207 22.7137H58.4758C57.1932 22.7137 56.1534 21.5838 56.1534 20.19C56.1534 18.7962 57.1932 17.6662 58.4758 17.6662H63.1207Z" fill="#A52727"/>
</svg>
