<svg width="31" height="38" viewBox="0 0 31 38" fill="none" xmlns="http://www.w3.org/2000/svg">
<path fill-rule="evenodd" clip-rule="evenodd" d="M9.03622 0.114C10.6762 0.0211072 11.199 0 15.375 0C19.5518 0 20.0737 0.0221609 21.7129 0.114C23.3503 0.205839 24.4685 0.527785 25.4465 0.9975C26.4723 1.47476 27.4015 2.22255 28.1695 3.18884C28.9515 4.13785 29.5568 5.28625 29.9428 6.55395C30.3229 7.76255 30.5825 9.14429 30.6577 11.1667C30.7329 13.1934 30.75 13.8394 30.75 19C30.75 24.1606 30.7321 24.8066 30.6577 26.8334C30.5834 28.8556 30.3229 30.2375 29.9428 31.446C29.5499 32.6949 29.0237 33.7556 28.1695 34.8111C27.4016 35.7775 26.4723 36.5254 25.4465 37.0025C24.4685 37.4721 23.3503 37.7931 21.7138 37.886C20.0737 37.9789 19.551 38 15.375 38C11.199 38 10.6762 37.9779 9.03622 37.886C7.39965 37.7941 6.28154 37.4721 5.30352 37.0025C4.29304 36.517 3.43461 35.8666 2.58044 34.8111C1.79837 33.8621 1.19321 32.7137 0.807187 31.446C0.427089 30.2375 0.16742 28.8556 0.09225 26.8334C0.0170802 24.8066 0 24.1616 0 19C0 13.8383 0.0179328 13.1934 0.09225 11.1678C0.166567 9.14429 0.427089 7.76255 0.807187 6.55395C1.19339 5.28634 1.79851 4.13799 2.58044 3.18884C3.34838 2.22238 4.27767 1.47454 5.30352 0.9975C6.28154 0.527785 7.39965 0.206893 9.03622 0.114ZM21.5882 3.534C19.967 3.44321 19.4801 3.42316 15.375 3.42316C11.2699 3.42316 10.783 3.44321 9.16179 3.534C7.66273 3.61845 6.84871 3.92771 6.30716 4.18845C5.58966 4.53255 5.07716 4.94421 4.53903 5.60921C4.00178 6.27421 3.66779 6.90755 3.38933 7.79421C3.17835 8.46345 2.92808 9.46939 2.85975 11.3219C2.78629 13.3253 2.77006 13.927 2.77006 19C2.77006 24.073 2.78629 24.6746 2.85975 26.6781C2.92808 28.5306 3.17835 29.5365 3.38933 30.2059C3.63564 31.0311 4.02851 31.7777 4.53903 32.3909C5.03509 33.0217 5.63928 33.5072 6.30716 33.8115C6.84871 34.0724 7.66273 34.3815 9.16179 34.466C10.783 34.5569 11.269 34.5769 15.375 34.5769C19.481 34.5769 19.967 34.5569 21.5882 34.466C23.0872 34.3815 23.9013 34.0724 24.4429 33.8115C25.1603 33.4675 25.6729 33.0559 26.211 32.3909C26.7215 31.7778 27.1144 31.0311 27.3606 30.2059C27.5717 29.5365 27.8219 28.5306 27.8902 26.6781C27.9638 24.6746 27.98 24.073 27.98 19C27.98 13.927 27.9638 13.3253 27.8902 11.3219C27.8219 9.46939 27.5717 8.46345 27.3606 7.79421C27.0822 6.90755 26.7491 6.27421 26.211 5.60921C25.6729 4.94529 25.1603 4.53255 24.4429 4.18845C23.9013 3.92771 23.0872 3.61845 21.5882 3.534ZM13.4119 24.857C14.0343 25.1757 14.7013 25.3396 15.375 25.3396C16.7357 25.3396 18.0405 24.6717 19.0025 23.4828C19.9647 22.2939 20.5052 20.6813 20.5052 19C20.5052 17.3187 19.9647 15.7061 19.0025 14.5172C18.0405 13.3283 16.7357 12.6603 15.375 12.6603C14.7013 12.6603 14.0343 12.8243 13.4119 13.1429C12.7893 13.4615 12.2239 13.9285 11.7475 14.5172C11.2711 15.1059 10.8932 15.8047 10.6354 16.5739C10.3776 17.343 10.2449 18.1675 10.2449 19C10.2449 19.8325 10.3776 20.657 10.6354 21.4261C10.8932 22.1953 11.2711 22.8941 11.7475 23.4828C12.2239 24.0714 12.7893 24.5385 13.4119 24.857ZM9.78696 12.0944C11.269 10.2629 13.2791 9.23398 15.375 9.23398C17.471 9.23398 19.4811 10.2629 20.9631 12.0944C22.4451 13.9259 23.2777 16.41 23.2777 19C23.2777 21.59 22.4451 24.074 20.9631 25.9056C19.4811 27.7371 17.471 28.766 15.375 28.766C13.2791 28.766 11.269 27.7371 9.78696 25.9056C8.3049 24.074 7.47229 21.59 7.47229 19C7.47229 16.41 8.3049 13.9259 9.78696 12.0944ZM25.0301 10.689C25.3803 10.2561 25.5771 9.66891 25.5771 9.05666C25.5771 8.44439 25.3803 7.85723 25.0301 7.4243C24.6797 6.99138 24.2046 6.74816 23.7091 6.74816C23.2137 6.74816 22.7385 6.99138 22.3882 7.4243C22.0378 7.85723 21.841 8.44439 21.841 9.05666C21.841 9.66891 22.0378 10.2561 22.3882 10.689C22.7385 11.1219 23.2137 11.3652 23.7091 11.3652C24.2046 11.3652 24.6797 11.1219 25.0301 10.689Z" fill="black"/>
</svg>
